<?xml version="1.0" encoding="UTF-8" standalone="no"?><!DOCTYPE svg PUBLIC "-//W3C//DTD SVG 1.1//EN" "http://www.w3.org/Graphics/SVG/1.1/DTD/svg11.dtd"><svg width="100%" height="100%" viewBox="0 0 25 25" version="1.1" xmlns="http://www.w3.org/2000/svg" xmlns:xlink="http://www.w3.org/1999/xlink" xml:space="preserve" style="fill-rule:evenodd;clip-rule:evenodd;stroke-linecap:round;stroke-linejoin:round;stroke-miterlimit:1.5;"><path d="M7.189,12.943c0.243,0 0.443,-0.198 0.443,-0.443c0,-0.245 -0.2,-0.442 -0.443,-0.442c-0.245,0 -0.444,0.197 -0.444,0.442c0,0.245 0.199,0.443 0.444,0.443Z" style="fill:#fefefe;fill-rule:nonzero;"/><path d="M7.189,15.377c0.243,0 0.443,-0.198 0.443,-0.442c0,-0.245 -0.2,-0.444 -0.443,-0.444c-0.245,0 -0.444,0.199 -0.444,0.444c0,0.244 0.199,0.442 0.444,0.442Z" style="fill:#fefefe;fill-rule:nonzero;"/><path d="M9.622,12.943c0.245,0 0.444,-0.198 0.444,-0.443c0,-0.245 -0.199,-0.442 -0.444,-0.442c-0.244,0 -0.443,0.197 -0.443,0.442c0,0.245 0.199,0.443 0.443,0.443Z" style="fill:#fefefe;fill-rule:nonzero;"/><path d="M9.622,15.377c0.245,0 0.444,-0.198 0.444,-0.442c0,-0.245 -0.199,-0.444 -0.444,-0.444c-0.244,0 -0.443,0.199 -0.443,0.444c0,0.244 0.199,0.442 0.443,0.442Z" style="fill:#fefefe;fill-rule:nonzero;"/><path d="M12.056,12.943c0.245,0 0.444,-0.198 0.444,-0.443c0,-0.245 -0.199,-0.442 -0.444,-0.442c-0.245,0 -0.442,0.197 -0.442,0.442c0,0.245 0.197,0.443 0.442,0.443Z" style="fill:#fefefe;fill-rule:nonzero;"/><path d="M7.189,10.509c0.243,0 0.443,-0.198 0.443,-0.443c0,-0.245 -0.2,-0.443 -0.443,-0.443c-0.245,0 -0.444,0.198 -0.444,0.443c0,0.245 0.199,0.443 0.444,0.443Z" style="fill:#fefefe;fill-rule:nonzero;"/><path d="M9.622,10.509c0.245,0 0.444,-0.198 0.444,-0.443c0,-0.245 -0.199,-0.443 -0.444,-0.443c-0.244,0 -0.443,0.198 -0.443,0.443c0,0.245 0.199,0.443 0.443,0.443Z" style="fill:#fefefe;fill-rule:nonzero;"/><path d="M12.056,10.509c0.245,0 0.444,-0.198 0.444,-0.443c0,-0.245 -0.199,-0.443 -0.444,-0.443c-0.245,0 -0.442,0.198 -0.442,0.443c0,0.245 0.197,0.443 0.442,0.443Z" style="fill:#fefefe;fill-rule:nonzero;"/><path d="M12.056,15.377c0.245,0 0.444,-0.198 0.444,-0.442c0,-0.245 -0.199,-0.444 -0.444,-0.444c-0.245,0 -0.442,0.199 -0.442,0.444c0,0.244 0.197,0.442 0.442,0.442Z" style="fill:#fefefe;fill-rule:nonzero;"/><path d="M14.491,12.943c0.244,0 0.443,-0.198 0.443,-0.443c0,-0.245 -0.199,-0.442 -0.443,-0.442c-0.245,0 -0.443,0.197 -0.443,0.442c0,0.245 0.198,0.443 0.443,0.443Z" style="fill:#fefefe;fill-rule:nonzero;"/><path d="M14.491,15.377c0.244,0 0.443,-0.198 0.443,-0.442c0,-0.245 -0.199,-0.444 -0.443,-0.444c-0.245,0 -0.443,0.199 -0.443,0.444c0,0.244 0.198,0.442 0.443,0.442Z" style="fill:#fefefe;fill-rule:nonzero;"/><path d="M14.491,10.509c0.244,0 0.443,-0.198 0.443,-0.444c0,-0.243 -0.199,-0.442 -0.443,-0.442c-0.245,0 -0.443,0.199 -0.443,0.442c0,0.246 0.198,0.444 0.443,0.444Z" style="fill:#fefefe;fill-rule:nonzero;"/><path d="M23.466,15.356c0.023,0 0.033,-0.01 0.033,-0.033l0,-2.031c0,-0.016 0.006,-0.026 0.022,-0.026l0.571,0c0.022,0 0.032,-0.013 0.032,-0.036l0,-0.206c0,-0.023 -0.01,-0.033 -0.032,-0.033l-1.514,0c-0.023,0 -0.033,0.01 -0.033,0.033l0,0.206c0,0.023 0.01,0.036 0.033,0.036l0.567,0c0.016,0 0.026,0.01 0.026,0.026l0,2.031c0,0.023 0.01,0.033 0.029,0.033l0.266,0Zm-2.312,-2.365c-0.023,0 -0.033,0.01 -0.033,0.033l0,2.299c0,0.023 0.01,0.033 0.033,0.033l0.265,0c0.02,0 0.029,-0.01 0.029,-0.033l0,-2.299c0,-0.023 -0.009,-0.033 -0.029,-0.033l-0.265,0Zm-1.605,0c-0.023,0 -0.033,0.01 -0.033,0.033l0,2.299c0,0.023 0.01,0.033 0.033,0.033l0.265,0c0.02,0 0.029,-0.01 0.029,-0.033l0,-2.299c0,-0.023 -0.009,-0.033 -0.029,-0.033l-0.265,0Zm-2.08,0.301c0,-0.016 0.01,-0.026 0.026,-0.026l0.917,0c0.023,0 0.036,-0.013 0.036,-0.036l0,-0.206c0,-0.023 -0.013,-0.033 -0.036,-0.033l-1.238,0c-0.023,0 -0.032,0.01 -0.032,0.033l0,2.299c0,0.023 0.009,0.033 0.032,0.033l0.266,0c0.019,0 0.029,-0.01 0.029,-0.033l0,-1.012l0.734,0c0.023,0 0.036,-0.01 0.036,-0.033l0,-0.209c0,-0.023 -0.013,-0.033 -0.036,-0.033l-0.734,0l0,-0.744Z" style="fill:#fefefe;fill-rule:nonzero;"/><path d="M24.255,9.701c0,-0.03 -0.013,-0.043 -0.036,-0.043l-0.442,0c-0.026,0 -0.04,0.013 -0.04,0.043l0,1.578c0,0.233 -0.127,0.348 -0.386,0.348c-0.255,0 -0.383,-0.115 -0.383,-0.348l0,-1.578c0,-0.03 -0.013,-0.043 -0.036,-0.043l-0.439,0c-0.029,0 -0.042,0.013 -0.042,0.043l0,1.591c0,0.462 0.258,0.754 0.9,0.754c0.645,0 0.904,-0.292 0.904,-0.754l0,-1.591Zm-3.563,2.322c0.029,0 0.042,-0.013 0.042,-0.043l0,-1.876c0,-0.017 0.007,-0.027 0.023,-0.027l0.557,0c0.026,0 0.039,-0.013 0.039,-0.042l0,-0.334c0,-0.03 -0.013,-0.043 -0.039,-0.043l-1.67,0c-0.03,0 -0.042,0.013 -0.042,0.043l0,0.334c0,0.029 0.012,0.042 0.042,0.042l0.547,0c0.016,0 0.026,0.01 0.026,0.027l0,1.876c0,0.03 0.013,0.043 0.036,0.043l0.439,0Zm-3.626,-0.115c0.223,0.115 0.436,0.138 0.708,0.138c0.504,0 0.829,-0.252 0.829,-0.711c0,-0.334 -0.158,-0.537 -0.567,-0.711c-0.351,-0.141 -0.4,-0.203 -0.4,-0.334c0,-0.134 0.092,-0.226 0.302,-0.226c0.154,0 0.285,0.026 0.412,0.079c0.029,0.013 0.049,0 0.059,-0.023l0.154,-0.301c0.01,-0.023 0.01,-0.046 -0.02,-0.056c-0.239,-0.105 -0.376,-0.128 -0.694,-0.128c-0.488,0 -0.776,0.285 -0.776,0.668c0,0.351 0.177,0.567 0.586,0.741c0.318,0.14 0.383,0.209 0.383,0.343c0,0.145 -0.117,0.23 -0.314,0.23c-0.226,0 -0.341,-0.046 -0.478,-0.109c-0.026,-0.009 -0.046,0 -0.056,0.024l-0.147,0.337c-0.007,0.013 0,0.026 0.019,0.039Z" style="fill:#fefefe;fill-rule:nonzero;"/><path d="M5,10.152l-4,2.332l4.057,2.365" style="fill:none;stroke:#fff;stroke-width:1px;"/></svg>