<?xml version="1.0" encoding="UTF-8" standalone="no"?><!DOCTYPE svg PUBLIC "-//W3C//DTD SVG 1.1//EN" "http://www.w3.org/Graphics/SVG/1.1/DTD/svg11.dtd"><svg width="100%" height="100%" viewBox="0 0 25 25" version="1.1" xmlns="http://www.w3.org/2000/svg" xmlns:xlink="http://www.w3.org/1999/xlink" xml:space="preserve" style="fill-rule:evenodd;clip-rule:evenodd;stroke-linejoin:round;stroke-miterlimit:1.41421;"><path d="M21.094,21.229c0.07,0 0.101,-0.03 0.101,-0.101l0,-6.197c0,-0.049 0.018,-0.08 0.067,-0.08l1.743,0c0.067,0 0.097,-0.039 0.097,-0.11l0,-0.628c0,-0.07 -0.03,-0.101 -0.097,-0.101l-4.621,0c-0.07,0 -0.1,0.031 -0.1,0.101l0,0.628c0,0.071 0.03,0.11 0.1,0.11l1.731,0c0.049,0 0.079,0.031 0.079,0.08l0,6.197c0,0.071 0.031,0.101 0.089,0.101l0.811,0Zm-7.055,-7.217c-0.07,0 -0.101,0.031 -0.101,0.101l0,7.015c0,0.071 0.031,0.101 0.101,0.101l0.809,0c0.061,0 0.088,-0.03 0.088,-0.101l0,-7.015c0,-0.07 -0.027,-0.101 -0.088,-0.101l-0.809,0Zm-4.898,0c-0.07,0 -0.1,0.031 -0.1,0.101l0,7.015c0,0.071 0.03,0.101 0.1,0.101l0.809,0c0.061,0 0.088,-0.03 0.088,-0.101l0,-7.015c0,-0.07 -0.027,-0.101 -0.088,-0.101l-0.809,0Zm-6.347,0.919c0,-0.049 0.03,-0.08 0.079,-0.08l2.799,0c0.07,0 0.109,-0.039 0.109,-0.11l0,-0.628c0,-0.07 -0.039,-0.101 -0.109,-0.101l-3.778,0c-0.07,0 -0.098,0.031 -0.098,0.101l0,7.015c0,0.071 0.028,0.101 0.098,0.101l0.811,0c0.058,0 0.089,-0.03 0.089,-0.101l0,-3.088l2.24,0c0.07,0 0.11,-0.03 0.11,-0.101l0,-0.637c0,-0.071 -0.04,-0.101 -0.11,-0.101l-2.24,0l0,-2.27l0,0Z" style="fill:#fefefe;fill-rule:nonzero;"/><path d="M23.502,3.972c0,-0.091 -0.04,-0.131 -0.11,-0.131l-1.349,0c-0.079,0 -0.122,0.04 -0.122,0.131l0,4.816c0,0.711 -0.387,1.062 -1.178,1.062c-0.778,0 -1.168,-0.351 -1.168,-1.062l0,-4.816c0,-0.091 -0.04,-0.131 -0.11,-0.131l-1.34,0c-0.088,0 -0.128,0.04 -0.128,0.131l0,4.855c0,1.41 0.787,2.301 2.746,2.301c1.969,0 2.759,-0.891 2.759,-2.301l0,-4.855l0,0Zm-10.873,7.086c0.089,0 0.128,-0.04 0.128,-0.131l0,-5.725c0,-0.052 0.022,-0.082 0.071,-0.082l1.699,0c0.08,0 0.119,-0.04 0.119,-0.128l0,-1.02c0,-0.091 -0.039,-0.131 -0.119,-0.131l-5.096,0c-0.091,0 -0.128,0.04 -0.128,0.131l0,1.02c0,0.088 0.037,0.128 0.128,0.128l1.669,0c0.049,0 0.08,0.03 0.08,0.082l0,5.725c0,0.091 0.039,0.131 0.11,0.131l1.339,0Zm-11.065,-0.351c0.681,0.351 1.331,0.421 2.161,0.421c1.538,0 2.529,-0.769 2.529,-2.169c0,-1.02 -0.482,-1.639 -1.73,-2.17c-1.071,-0.43 -1.22,-0.619 -1.22,-1.019c0,-0.409 0.28,-0.69 0.921,-0.69c0.47,0 0.87,0.079 1.257,0.241c0.089,0.04 0.15,0 0.18,-0.07l0.47,-0.919c0.031,-0.07 0.031,-0.14 -0.061,-0.17c-0.729,-0.321 -1.147,-0.391 -2.117,-0.391c-1.49,0 -2.368,0.87 -2.368,2.038c0,1.072 0.54,1.731 1.788,2.262c0.97,0.427 1.168,0.637 1.168,1.046c0,0.443 -0.357,0.702 -0.958,0.702c-0.689,0 -1.04,-0.14 -1.458,-0.332c-0.08,-0.028 -0.141,0 -0.171,0.073l-0.449,1.028c-0.021,0.04 0,0.08 0.058,0.119l0,0Z" style="fill:#fefefe;fill-rule:nonzero;"/></svg>