<?xml version="1.0" encoding="UTF-8" standalone="no"?><!DOCTYPE svg PUBLIC "-//W3C//DTD SVG 1.1//EN" "http://www.w3.org/Graphics/SVG/1.1/DTD/svg11.dtd"><svg width="100%" height="100%" viewBox="0 0 99 22" version="1.1" xmlns="http://www.w3.org/2000/svg" xmlns:xlink="http://www.w3.org/1999/xlink" xml:space="preserve" style="fill-rule:evenodd;clip-rule:evenodd;stroke-linejoin:round;stroke-miterlimit:1.41421;"><rect x="0" y="0" width="98.16" height="21.6" style="fill:#00a9e0;"/><g><path d="M42.418,6.495l0.108,-0.246c0.007,-0.016 0.021,-0.023 0.04,-0.016c0.1,0.045 0.183,0.078 0.348,0.078c0.143,0 0.229,-0.062 0.229,-0.167c0,-0.097 -0.048,-0.147 -0.279,-0.25c-0.298,-0.127 -0.427,-0.284 -0.427,-0.539c0,-0.279 0.21,-0.487 0.566,-0.487c0.231,0 0.331,0.017 0.505,0.094c0.022,0.007 0.022,0.023 0.014,0.04l-0.112,0.219c-0.007,0.017 -0.021,0.027 -0.043,0.017c-0.093,-0.038 -0.188,-0.057 -0.3,-0.057c-0.153,0 -0.22,0.067 -0.22,0.164c0,0.096 0.036,0.141 0.291,0.244c0.298,0.126 0.413,0.274 0.413,0.518c0,0.333 -0.236,0.517 -0.603,0.517c-0.199,0 -0.353,-0.017 -0.516,-0.1c-0.014,-0.01 -0.019,-0.019 -0.014,-0.029Z" style="fill:#fefefe;fill-rule:nonzero;"/><path d="M44.788,6.283c0,0.012 0.005,0.019 0.017,0.019l0.627,0c0.019,0 0.029,0.009 0.029,0.031l0,0.243c0,0.022 -0.01,0.031 -0.029,0.031l-0.99,0c-0.021,0 -0.031,-0.009 -0.031,-0.031l0,-1.66c0,-0.021 0.01,-0.031 0.031,-0.031l0.32,0c0.017,0 0.026,0.01 0.026,0.031l0,1.367Z" style="fill:#fefefe;fill-rule:nonzero;"/><path d="M46.826,6.624c-0.572,0 -0.744,-0.313 -0.744,-0.878c0,-0.57 0.172,-0.878 0.744,-0.878c0.573,0 0.745,0.31 0.745,0.876c0,0.57 -0.172,0.88 -0.745,0.88Zm0.003,-1.45c-0.229,0 -0.353,0.186 -0.353,0.57c0,0.391 0.121,0.574 0.35,0.574c0.227,0 0.351,-0.183 0.351,-0.572c0,-0.389 -0.127,-0.572 -0.348,-0.572Z" style="fill:#fefefe;fill-rule:nonzero;"/><path d="M48.813,6.607c-0.012,0 -0.019,-0.007 -0.024,-0.021l-0.486,-1.663c-0.008,-0.021 0.004,-0.038 0.023,-0.038l0.349,0c0.019,0 0.021,0.007 0.028,0.024l0.337,1.321l0.336,-1.321c0.004,-0.017 0.014,-0.024 0.031,-0.024l0.31,0c0.021,0 0.031,0.012 0.026,0.034l-0.489,1.667c-0.005,0.014 -0.014,0.021 -0.029,0.021l-0.412,0Z" style="fill:#fefefe;fill-rule:nonzero;"/><path d="M50.921,5.593l0.532,0c0.022,0 0.033,0.01 0.033,0.029l0,0.248c0,0.017 -0.011,0.027 -0.033,0.027l-0.532,0l0,0.386c0,0.012 0.005,0.019 0.017,0.019l0.67,0c0.021,0 0.031,0.009 0.031,0.029l0,0.245c0,0.022 -0.01,0.031 -0.031,0.031l-1.033,0c-0.021,0 -0.031,-0.009 -0.031,-0.031l0,-1.66c0,-0.021 0.01,-0.031 0.031,-0.031l1.033,0c0.021,0 0.031,0.01 0.031,0.031l0,0.244c0,0.021 -0.01,0.031 -0.031,0.031l-0.67,0c-0.012,0 -0.017,0.006 -0.017,0.019l0,0.383Z" style="fill:#fefefe;fill-rule:nonzero;"/><path d="M53.425,6.044l0,-1.128c0,-0.021 0.007,-0.031 0.024,-0.031l0.307,0c0.019,0 0.029,0.01 0.029,0.031l0,1.66c0,0.022 -0.01,0.031 -0.029,0.031l-0.334,0c-0.021,0 -0.026,-0.002 -0.033,-0.019l-0.553,-1.14l0,1.128c0,0.022 -0.01,0.031 -0.029,0.031l-0.301,0c-0.021,0 -0.03,-0.009 -0.03,-0.031l0,-1.66c0,-0.021 0.009,-0.031 0.03,-0.031l0.33,0c0.021,0 0.026,0.002 0.033,0.019l0.556,1.14Z" style="fill:#fefefe;fill-rule:nonzero;"/><path d="M54.648,6.495l0.108,-0.246c0.007,-0.016 0.021,-0.023 0.04,-0.016c0.1,0.045 0.183,0.078 0.348,0.078c0.143,0 0.229,-0.062 0.229,-0.167c0,-0.097 -0.047,-0.147 -0.279,-0.25c-0.298,-0.127 -0.427,-0.284 -0.427,-0.539c0,-0.279 0.21,-0.487 0.565,-0.487c0.232,0 0.332,0.017 0.506,0.094c0.022,0.007 0.022,0.023 0.014,0.04l-0.112,0.219c-0.007,0.017 -0.021,0.027 -0.043,0.017c-0.092,-0.038 -0.188,-0.057 -0.3,-0.057c-0.153,0 -0.22,0.067 -0.22,0.164c0,0.096 0.036,0.141 0.291,0.244c0.298,0.126 0.413,0.274 0.413,0.518c0,0.333 -0.236,0.517 -0.603,0.517c-0.199,0 -0.353,-0.017 -0.516,-0.1c-0.014,-0.01 -0.018,-0.019 -0.014,-0.029Z" style="fill:#fefefe;fill-rule:nonzero;"/><path d="M57.333,5.756l0.592,0.808c0.011,0.019 0,0.043 -0.019,0.043l-0.408,0c-0.01,0 -0.017,-0.005 -0.022,-0.012l-0.46,-0.718l0,0.699c0,0.022 -0.01,0.031 -0.026,0.031l-0.32,0c-0.022,0 -0.031,-0.009 -0.031,-0.031l0,-1.66c0,-0.021 0.009,-0.031 0.031,-0.031l0.32,0c0.016,0 0.026,0.01 0.026,0.031l0,0.756l0.455,-0.775c0.005,-0.007 0.012,-0.012 0.022,-0.012l0.367,0c0.027,0 0.033,0.024 0.022,0.043l-0.549,0.828Z" style="fill:#fefefe;fill-rule:nonzero;"/><path d="M59.045,6.245l-0.096,0.341c-0.007,0.014 -0.017,0.021 -0.031,0.021l-0.31,0c-0.016,0 -0.028,-0.014 -0.021,-0.031l0.524,-1.679c0,-0.007 0.008,-0.012 0.02,-0.012l0.422,0c0.007,0 0.014,0.005 0.019,0.017l0.52,1.674c0.007,0.017 -0.005,0.031 -0.022,0.031l-0.346,0c-0.014,0 -0.023,-0.007 -0.031,-0.021l-0.095,-0.341l-0.553,0Zm0.467,-0.303l-0.191,-0.661l-0.19,0.661l0.381,0Zm-0.288,-1.15c-0.015,0.007 -0.024,0.002 -0.032,-0.01l-0.047,-0.099c-0.007,-0.01 -0.003,-0.019 0.011,-0.029l0.457,-0.286c0.009,-0.008 0.025,-0.008 0.033,0.009l0.095,0.196c0.007,0.011 0.007,0.026 -0.01,0.033l-0.507,0.186Z" style="fill:#fefefe;fill-rule:nonzero;"/><path d="M62.576,6.607c-0.016,0 -0.026,-0.009 -0.026,-0.031l0,-1.366c0,-0.013 -0.007,-0.019 -0.02,-0.019l-0.398,0c-0.021,0 -0.03,-0.01 -0.03,-0.031l0,-0.244c0,-0.021 0.009,-0.031 0.03,-0.031l1.217,0c0.019,0 0.028,0.01 0.028,0.031l0,0.244c0,0.021 -0.009,0.031 -0.028,0.031l-0.406,0c-0.012,0 -0.016,0.006 -0.016,0.019l0,1.366c0,0.022 -0.01,0.031 -0.032,0.031l-0.319,0Z" style="fill:#fefefe;fill-rule:nonzero;"/><path d="M64.555,5.593l0.531,0c0.022,0 0.034,0.01 0.034,0.029l0,0.248c0,0.017 -0.012,0.027 -0.034,0.027l-0.531,0l0,0.386c0,0.012 0.004,0.019 0.016,0.019l0.67,0c0.022,0 0.032,0.009 0.032,0.029l0,0.245c0,0.022 -0.01,0.031 -0.032,0.031l-1.032,0c-0.022,0 -0.031,-0.009 -0.031,-0.031l0,-1.66c0,-0.021 0.009,-0.031 0.031,-0.031l1.032,0c0.022,0 0.032,0.01 0.032,0.031l0,0.244c0,0.021 -0.01,0.031 -0.032,0.031l-0.67,0c-0.012,0 -0.016,0.006 -0.016,0.019l0,0.383Z" style="fill:#fefefe;fill-rule:nonzero;"/><path d="M66.851,6.624c-0.494,0 -0.789,-0.337 -0.789,-0.878c0,-0.541 0.295,-0.878 0.789,-0.878c0.201,0 0.329,0.024 0.46,0.099c0.012,0.006 0.017,0.016 0.017,0.023c0,0.007 -0.002,0.017 -0.007,0.026l-0.112,0.215c-0.007,0.012 -0.014,0.019 -0.022,0.019c-0.007,0 -0.014,-0.002 -0.021,-0.005c-0.095,-0.045 -0.179,-0.062 -0.284,-0.062c-0.198,0 -0.427,0.165 -0.427,0.563c0,0.401 0.217,0.561 0.429,0.561c0.079,0 0.172,-0.01 0.284,-0.065c0.017,-0.007 0.031,-0.005 0.038,0.009l0.117,0.223c0.012,0.019 0.008,0.035 -0.012,0.047c-0.143,0.081 -0.269,0.103 -0.46,0.103Z" style="fill:#fefefe;fill-rule:nonzero;"/><path d="M68.539,5.897c-0.012,0 -0.019,0.007 -0.019,0.018l0,0.661c0,0.022 -0.009,0.031 -0.026,0.031l-0.32,0c-0.021,0 -0.03,-0.009 -0.03,-0.031l0,-1.66c0,-0.021 0.009,-0.031 0.03,-0.031l0.32,0c0.017,0 0.026,0.01 0.026,0.031l0,0.658c0,0.012 0.007,0.019 0.019,0.019l0.518,0c0.012,0 0.019,-0.007 0.019,-0.019l0,-0.658c0,-0.021 0.01,-0.031 0.029,-0.031l0.319,0c0.019,0 0.029,0.01 0.029,0.031l0,1.66c0,0.022 -0.01,0.031 -0.029,0.031l-0.319,0c-0.019,0 -0.029,-0.009 -0.029,-0.031l0,-0.661c0,-0.011 -0.007,-0.018 -0.019,-0.018l-0.518,0Z" style="fill:#fefefe;fill-rule:nonzero;"/><path d="M71.334,6.044l0,-1.128c0,-0.021 0.007,-0.031 0.024,-0.031l0.308,0c0.019,0 0.028,0.01 0.028,0.031l0,1.66c0,0.022 -0.009,0.031 -0.028,0.031l-0.334,0c-0.022,0 -0.027,-0.002 -0.034,-0.019l-0.553,-1.14l0,1.128c0,0.022 -0.01,0.031 -0.029,0.031l-0.3,0c-0.022,0 -0.031,-0.009 -0.031,-0.031l0,-1.66c0,-0.021 0.009,-0.031 0.031,-0.031l0.329,0c0.021,0 0.026,0.002 0.033,0.019l0.556,1.14Z" style="fill:#fefefe;fill-rule:nonzero;"/><path d="M72.977,4.885c0.017,0 0.027,0.01 0.027,0.031l0,1.66c0,0.022 -0.01,0.031 -0.027,0.031l-0.32,0c-0.021,0 -0.03,-0.009 -0.03,-0.031l0,-1.66c0,-0.021 0.009,-0.031 0.03,-0.031l0.32,0Z" style="fill:#fefefe;fill-rule:nonzero;"/><path d="M74.677,6.624c-0.494,0 -0.79,-0.337 -0.79,-0.878c0,-0.541 0.296,-0.878 0.79,-0.878c0.2,0 0.329,0.024 0.46,0.099c0.011,0.006 0.016,0.016 0.016,0.023c0,0.007 -0.002,0.017 -0.006,0.026l-0.113,0.215c-0.007,0.012 -0.014,0.019 -0.021,0.019c-0.007,0 -0.015,-0.002 -0.022,-0.005c-0.095,-0.045 -0.178,-0.062 -0.283,-0.062c-0.198,0 -0.427,0.165 -0.427,0.563c0,0.401 0.217,0.561 0.429,0.561c0.079,0 0.172,-0.01 0.284,-0.065c0.016,-0.007 0.031,-0.005 0.038,0.009l0.116,0.223c0.013,0.019 0.008,0.035 -0.011,0.047c-0.143,0.081 -0.27,0.103 -0.46,0.103Z" style="fill:#fefefe;fill-rule:nonzero;"/><path d="M76.663,5.756l0.591,0.808c0.012,0.019 0,0.043 -0.019,0.043l-0.408,0c-0.01,0 -0.017,-0.005 -0.022,-0.012l-0.46,-0.718l0,0.699c0,0.022 -0.009,0.031 -0.026,0.031l-0.32,0c-0.021,0 -0.03,-0.009 -0.03,-0.031l0,-1.66c0,-0.021 0.009,-0.031 0.03,-0.031l0.32,0c0.017,0 0.026,0.01 0.026,0.031l0,0.756l0.456,-0.775c0.004,-0.007 0.012,-0.012 0.021,-0.012l0.368,0c0.026,0 0.033,0.024 0.021,0.043l-0.548,0.828Z" style="fill:#fefefe;fill-rule:nonzero;"/><path d="M78.375,6.245l-0.096,0.341c-0.007,0.014 -0.017,0.021 -0.031,0.021l-0.31,0c-0.017,0 -0.028,-0.014 -0.021,-0.031l0.524,-1.679c0,-0.007 0.007,-0.012 0.02,-0.012l0.422,0c0.006,0 0.014,0.005 0.019,0.017l0.52,1.674c0.007,0.017 -0.006,0.031 -0.022,0.031l-0.346,0c-0.014,0 -0.024,-0.007 -0.031,-0.021l-0.095,-0.341l-0.553,0Zm0.467,-0.303l-0.191,-0.661l-0.19,0.661l0.381,0Zm-0.289,-1.15c-0.014,0.007 -0.023,0.002 -0.031,-0.01l-0.048,-0.099c-0.007,-0.01 -0.002,-0.019 0.012,-0.029l0.456,-0.286c0.01,-0.008 0.026,-0.008 0.033,0.009l0.096,0.196c0.007,0.011 0.007,0.026 -0.01,0.033l-0.508,0.186Z" style="fill:#fefefe;fill-rule:nonzero;"/><path d="M43.801,9.389c0,0.336 -0.188,0.548 -0.658,0.548c-0.467,0 -0.656,-0.212 -0.656,-0.548l0,-1.159c0,-0.022 0.01,-0.031 0.031,-0.031l0.32,0c0.016,0 0.026,0.009 0.026,0.031l0,1.149c0,0.169 0.093,0.253 0.279,0.253c0.189,0 0.282,-0.084 0.282,-0.253l0,-1.149c0,-0.022 0.009,-0.031 0.028,-0.031l0.322,0c0.017,0 0.026,0.009 0.026,0.031l0,1.159Z" style="fill:#fefefe;fill-rule:nonzero;"/><path d="M45.683,9.358l0,-1.128c0,-0.022 0.007,-0.031 0.024,-0.031l0.308,0c0.019,0 0.028,0.009 0.028,0.031l0,1.66c0,0.021 -0.009,0.03 -0.028,0.03l-0.334,0c-0.022,0 -0.026,-0.002 -0.034,-0.018l-0.553,-1.14l0,1.128c0,0.021 -0.009,0.03 -0.028,0.03l-0.301,0c-0.021,0 -0.031,-0.009 -0.031,-0.03l0,-1.66c0,-0.022 0.01,-0.031 0.031,-0.031l0.329,0c0.021,0 0.026,0.002 0.033,0.019l0.556,1.14Z" style="fill:#fefefe;fill-rule:nonzero;"/><path d="M47.326,8.199c0.017,0 0.026,0.009 0.026,0.031l0,1.66c0,0.021 -0.009,0.03 -0.026,0.03l-0.32,0c-0.021,0 -0.031,-0.009 -0.031,-0.03l0,-1.66c0,-0.022 0.01,-0.031 0.031,-0.031l0.32,0Z" style="fill:#fefefe;fill-rule:nonzero;"/><path d="M48.665,9.92c-0.012,0 -0.019,-0.006 -0.024,-0.021l-0.486,-1.662c-0.007,-0.022 0.004,-0.038 0.024,-0.038l0.348,0c0.019,0 0.021,0.007 0.028,0.024l0.337,1.321l0.336,-1.321c0.005,-0.017 0.014,-0.024 0.031,-0.024l0.31,0c0.021,0 0.031,0.012 0.026,0.033l-0.488,1.667c-0.006,0.015 -0.015,0.021 -0.029,0.021l-0.413,0Z" style="fill:#fefefe;fill-rule:nonzero;"/><path d="M50.774,8.907l0.531,0c0.022,0 0.034,0.01 0.034,0.029l0,0.248c0,0.016 -0.012,0.026 -0.034,0.026l-0.531,0l0,0.387c0,0.011 0.004,0.018 0.016,0.018l0.67,0c0.022,0 0.031,0.01 0.031,0.029l0,0.246c0,0.021 -0.009,0.03 -0.031,0.03l-1.032,0c-0.022,0 -0.031,-0.009 -0.031,-0.03l0,-1.66c0,-0.022 0.009,-0.031 0.031,-0.031l1.032,0c0.022,0 0.031,0.009 0.031,0.031l0,0.243c0,0.021 -0.009,0.031 -0.031,0.031l-0.67,0c-0.012,0 -0.016,0.007 -0.016,0.019l0,0.384Z" style="fill:#fefefe;fill-rule:nonzero;"/><path d="M52.705,9.238l0,0.652c0,0.021 -0.01,0.03 -0.026,0.03l-0.32,0c-0.022,0 -0.031,-0.009 -0.031,-0.03l0,-1.66c0,-0.022 0.009,-0.031 0.031,-0.031l0.551,0c0.431,0 0.615,0.191 0.615,0.522c0,0.248 -0.117,0.42 -0.346,0.484l0.434,0.67c0.017,0.027 0.003,0.045 -0.019,0.045l-0.379,0c-0.012,0 -0.019,-0.004 -0.022,-0.011l-0.388,-0.671l-0.1,0Zm0,-0.269l0.145,0c0.174,0 0.282,-0.076 0.282,-0.241c0,-0.155 -0.091,-0.224 -0.273,-0.224l-0.135,0c-0.012,0 -0.019,0.007 -0.019,0.019l0,0.446Z" style="fill:#fefefe;fill-rule:nonzero;"/><path d="M55.545,8.199c0.019,0 0.029,0.009 0.029,0.031l0,0.243c0,0.012 -0.003,0.021 -0.01,0.031l-0.759,1.111l0.74,0c0.019,0 0.029,0.01 0.029,0.027l0,0.248c0,0.021 -0.01,0.03 -0.029,0.03l-1.14,0c-0.022,0 -0.031,-0.009 -0.031,-0.03l0,-0.241c0,-0.007 0.005,-0.019 0.012,-0.031l0.753,-1.114l-0.734,0c-0.022,0 -0.031,-0.01 -0.031,-0.029l0,-0.245c0,-0.022 0.009,-0.031 0.031,-0.031l1.14,0Z" style="fill:#fefefe;fill-rule:nonzero;"/><path d="M56.761,8.199c0.016,0 0.026,0.009 0.026,0.031l0,1.66c0,0.021 -0.01,0.03 -0.026,0.03l-0.32,0c-0.021,0 -0.031,-0.009 -0.031,-0.03l0,-1.66c0,-0.022 0.01,-0.031 0.031,-0.031l0.32,0Z" style="fill:#fefefe;fill-rule:nonzero;"/><path d="M58.062,9.92c-0.017,0 -0.027,-0.009 -0.027,-0.03l0,-1.367c0,-0.012 -0.007,-0.019 -0.019,-0.019l-0.398,0c-0.022,0 -0.031,-0.01 -0.031,-0.031l0,-0.243c0,-0.022 0.009,-0.031 0.031,-0.031l1.216,0c0.019,0 0.029,0.009 0.029,0.031l0,0.243c0,0.021 -0.01,0.031 -0.029,0.031l-0.405,0c-0.012,0 -0.017,0.007 -0.017,0.019l0,1.367c0,0.021 -0.01,0.03 -0.031,0.03l-0.319,0Z" style="fill:#fefefe;fill-rule:nonzero;"/><path d="M59.847,9.558l-0.095,0.341c-0.007,0.015 -0.016,0.021 -0.031,0.021l-0.31,0c-0.017,0 -0.028,-0.014 -0.022,-0.03l0.525,-1.679c0,-0.008 0.007,-0.012 0.019,-0.012l0.422,0c0.008,0 0.014,0.004 0.019,0.016l0.52,1.675c0.007,0.016 -0.004,0.03 -0.021,0.03l-0.346,0c-0.015,0 -0.024,-0.006 -0.031,-0.021l-0.095,-0.341l-0.554,0Zm0.468,-0.303l-0.191,-0.66l-0.191,0.66l0.382,0Z" style="fill:#fefefe;fill-rule:nonzero;"/><path d="M63.416,9.92c-0.011,0 -0.019,-0.006 -0.024,-0.021l-0.486,-1.662c-0.007,-0.022 0.005,-0.038 0.024,-0.038l0.348,0c0.019,0 0.021,0.007 0.029,0.024l0.336,1.321l0.336,-1.321c0.005,-0.017 0.015,-0.024 0.031,-0.024l0.31,0c0.022,0 0.032,0.012 0.027,0.033l-0.489,1.667c-0.005,0.015 -0.015,0.021 -0.029,0.021l-0.413,0Z" style="fill:#fefefe;fill-rule:nonzero;"/><path d="M67.007,8.199c0.475,0 0.69,0.138 0.69,0.465c0,0.152 -0.101,0.31 -0.351,0.386c0.27,0.074 0.379,0.231 0.379,0.451c0,0.305 -0.202,0.419 -0.701,0.419l-0.506,0c-0.021,0 -0.03,-0.009 -0.03,-0.03l0,-1.66c0,-0.022 0.009,-0.031 0.03,-0.031l0.489,0Zm-0.124,0.305c-0.012,0 -0.019,0.007 -0.019,0.019l0,0.401l0.141,0c0.198,0 0.298,-0.06 0.298,-0.222c0,-0.153 -0.093,-0.198 -0.255,-0.198l-0.165,0Zm-0.019,0.689l0,0.404c0,0.011 0.005,0.018 0.017,0.018l0.203,0c0.131,0 0.248,-0.05 0.248,-0.198c0,-0.16 -0.105,-0.224 -0.336,-0.224l-0.132,0Z" style="fill:#fefefe;fill-rule:nonzero;"/><path d="M69.034,9.238l0,0.652c0,0.021 -0.01,0.03 -0.026,0.03l-0.32,0c-0.021,0 -0.031,-0.009 -0.031,-0.03l0,-1.66c0,-0.022 0.01,-0.031 0.031,-0.031l0.551,0c0.432,0 0.616,0.191 0.616,0.522c0,0.248 -0.117,0.42 -0.346,0.484l0.434,0.67c0.016,0.027 0.002,0.045 -0.019,0.045l-0.38,0c-0.012,0 -0.018,-0.004 -0.021,-0.011l-0.389,-0.671l-0.1,0Zm0,-0.269l0.146,0c0.174,0 0.281,-0.076 0.281,-0.241c0,-0.155 -0.091,-0.224 -0.272,-0.224l-0.136,0c-0.012,0 -0.019,0.007 -0.019,0.019l0,0.446Z" style="fill:#fefefe;fill-rule:nonzero;"/><path d="M71.126,9.558l-0.096,0.341c-0.007,0.015 -0.017,0.021 -0.031,0.021l-0.31,0c-0.017,0 -0.029,-0.014 -0.021,-0.03l0.524,-1.679c0,-0.008 0.007,-0.012 0.02,-0.012l0.422,0c0.006,0 0.014,0.004 0.019,0.016l0.519,1.675c0.008,0.016 -0.005,0.03 -0.021,0.03l-0.346,0c-0.014,0 -0.024,-0.006 -0.031,-0.021l-0.095,-0.341l-0.553,0Zm0.467,-0.303l-0.191,-0.66l-0.19,0.66l0.381,0Z" style="fill:#fefefe;fill-rule:nonzero;"/><path d="M73.172,9.92c-0.017,0 -0.026,-0.009 -0.026,-0.03l0,-1.367c0,-0.012 -0.008,-0.019 -0.02,-0.019l-0.398,0c-0.021,0 -0.031,-0.01 -0.031,-0.031l0,-0.243c0,-0.022 0.01,-0.031 0.031,-0.031l1.216,0c0.019,0 0.029,0.009 0.029,0.031l0,0.243c0,0.021 -0.01,0.031 -0.029,0.031l-0.405,0c-0.012,0 -0.017,0.007 -0.017,0.019l0,1.367c0,0.021 -0.009,0.03 -0.031,0.03l-0.319,0Z" style="fill:#fefefe;fill-rule:nonzero;"/><path d="M75.124,8.199c0.016,0 0.026,0.009 0.026,0.031l0,1.66c0,0.021 -0.01,0.03 -0.026,0.03l-0.32,0c-0.021,0 -0.031,-0.009 -0.031,-0.03l0,-1.66c0,-0.022 0.01,-0.031 0.031,-0.031l0.32,0Z" style="fill:#fefefe;fill-rule:nonzero;"/><path d="M76.012,9.809l0.108,-0.246c0.007,-0.017 0.021,-0.024 0.04,-0.017c0.101,0.045 0.184,0.079 0.348,0.079c0.144,0 0.23,-0.062 0.23,-0.167c0,-0.098 -0.048,-0.148 -0.279,-0.25c-0.299,-0.127 -0.428,-0.284 -0.428,-0.539c0,-0.279 0.21,-0.487 0.566,-0.487c0.231,0 0.331,0.017 0.505,0.093c0.022,0.008 0.022,0.024 0.015,0.041l-0.112,0.219c-0.008,0.017 -0.022,0.026 -0.043,0.017c-0.093,-0.039 -0.189,-0.058 -0.301,-0.058c-0.153,0 -0.219,0.067 -0.219,0.165c0,0.095 0.036,0.14 0.29,0.243c0.299,0.127 0.413,0.274 0.413,0.518c0,0.334 -0.236,0.517 -0.603,0.517c-0.198,0 -0.353,-0.017 -0.516,-0.1c-0.014,-0.009 -0.018,-0.019 -0.014,-0.028Z" style="fill:#fefefe;fill-rule:nonzero;"/><path d="M78.383,9.597c0,0.011 0.004,0.018 0.016,0.018l0.628,0c0.018,0 0.028,0.01 0.028,0.031l0,0.244c0,0.021 -0.01,0.03 -0.028,0.03l-0.99,0c-0.022,0 -0.031,-0.009 -0.031,-0.03l0,-1.66c0,-0.022 0.009,-0.031 0.031,-0.031l0.32,0c0.016,0 0.026,0.009 0.026,0.031l0,1.367Z" style="fill:#fefefe;fill-rule:nonzero;"/><path d="M80.17,9.558l-0.095,0.341c-0.007,0.015 -0.016,0.021 -0.031,0.021l-0.31,0c-0.017,0 -0.028,-0.014 -0.022,-0.03l0.525,-1.679c0,-0.008 0.007,-0.012 0.019,-0.012l0.422,0c0.007,0 0.015,0.004 0.019,0.016l0.52,1.675c0.007,0.016 -0.005,0.03 -0.021,0.03l-0.346,0c-0.015,0 -0.024,-0.006 -0.031,-0.021l-0.095,-0.341l-0.554,0Zm0.468,-0.303l-0.191,-0.66l-0.191,0.66l0.382,0Z" style="fill:#fefefe;fill-rule:nonzero;"/><path d="M82.305,9.92c-0.012,0 -0.019,-0.006 -0.024,-0.021l-0.486,-1.662c-0.008,-0.022 0.004,-0.038 0.023,-0.038l0.349,0c0.019,0 0.021,0.007 0.028,0.024l0.336,1.321l0.337,-1.321c0.004,-0.017 0.014,-0.024 0.031,-0.024l0.31,0c0.021,0 0.031,0.012 0.026,0.033l-0.489,1.667c-0.005,0.015 -0.014,0.021 -0.029,0.021l-0.412,0Z" style="fill:#fefefe;fill-rule:nonzero;"/><path d="M84.411,8.907l0.532,0c0.021,0 0.033,0.01 0.033,0.029l0,0.248c0,0.016 -0.012,0.026 -0.033,0.026l-0.532,0l0,0.387c0,0.011 0.004,0.018 0.016,0.018l0.671,0c0.021,0 0.031,0.01 0.031,0.029l0,0.246c0,0.021 -0.01,0.03 -0.031,0.03l-1.033,0c-0.022,0 -0.031,-0.009 -0.031,-0.03l0,-1.66c0,-0.022 0.009,-0.031 0.031,-0.031l1.033,0c0.021,0 0.031,0.009 0.031,0.031l0,0.243c0,0.021 -0.01,0.031 -0.031,0.031l-0.671,0c-0.012,0 -0.016,0.007 -0.016,0.019l0,0.384Z" style="fill:#fefefe;fill-rule:nonzero;"/><path d="M42.726,12.273l0.534,0c0.017,0 0.026,0.007 0.026,0.024l0,0.152c0,0.017 -0.009,0.024 -0.026,0.024l-0.534,0l0,0.737c0,0.017 -0.007,0.024 -0.022,0.024l-0.193,0c-0.017,0 -0.024,-0.007 -0.024,-0.024l0,-1.674c0,-0.017 0.007,-0.023 0.024,-0.023l0.901,0c0.017,0 0.027,0.006 0.027,0.023l0,0.151c0,0.016 -0.01,0.026 -0.027,0.026l-0.667,0c-0.012,0 -0.019,0.007 -0.019,0.019l0,0.541Z" style="fill:#fefefe;fill-rule:nonzero;"/><path d="M44.266,12.827l-0.113,0.388c-0.005,0.012 -0.014,0.019 -0.026,0.019l-0.189,0c-0.016,0 -0.023,-0.012 -0.016,-0.029l0.52,-1.681c0,-0.007 0.005,-0.011 0.016,-0.011l0.272,0c0.007,0 0.015,0.004 0.017,0.013l0.515,1.677c0.007,0.022 0,0.031 -0.019,0.031l-0.207,0c-0.012,0 -0.022,-0.007 -0.024,-0.019l-0.112,-0.388l-0.634,0Zm0.576,-0.201l-0.26,-0.873l-0.259,0.873l0.519,0Z" style="fill:#fefefe;fill-rule:nonzero;"/><path d="M46.526,12.349l0.673,0.85c0.011,0.016 0,0.035 -0.019,0.035l-0.244,0c-0.007,0 -0.014,-0.002 -0.019,-0.009l-0.613,-0.816l0,0.801c0,0.017 -0.007,0.024 -0.021,0.024l-0.193,0c-0.017,0 -0.024,-0.007 -0.024,-0.024l0,-1.674c0,-0.017 0.007,-0.023 0.024,-0.023l0.193,0c0.014,0 0.021,0.006 0.021,0.023l0,0.775l0.587,-0.789c0.005,-0.008 0.012,-0.009 0.021,-0.009l0.222,0c0.019,0 0.029,0.021 0.017,0.037l-0.625,0.799Z" style="fill:#fefefe;fill-rule:nonzero;"/><path d="M49.175,12.7c0,0.334 -0.119,0.551 -0.589,0.551c-0.47,0 -0.589,-0.217 -0.589,-0.551l0,-1.164c0,-0.017 0.007,-0.023 0.024,-0.023l0.193,0c0.014,0 0.021,0.006 0.021,0.023l0,1.216c0,0.219 0.12,0.299 0.351,0.299c0.229,0 0.351,-0.081 0.351,-0.299l0,-1.216c0,-0.017 0.007,-0.023 0.023,-0.023l0.191,0c0.017,0 0.024,0.006 0.024,0.023l0,1.164Z" style="fill:#fefefe;fill-rule:nonzero;"/><path d="M50.346,13.015c0,0.012 0.005,0.019 0.016,0.019l0.661,0c0.017,0 0.024,0.009 0.024,0.026l0,0.15c0,0.017 -0.007,0.024 -0.024,0.024l-0.891,0c-0.017,0 -0.024,-0.007 -0.024,-0.024l0,-1.674c0,-0.017 0.007,-0.023 0.024,-0.023l0.192,0c0.015,0 0.022,0.006 0.022,0.023l0,1.479Z" style="fill:#fefefe;fill-rule:nonzero;"/><path d="M51.99,13.234c-0.014,0 -0.021,-0.007 -0.021,-0.024l0,-1.478c0,-0.012 -0.007,-0.019 -0.019,-0.019l-0.413,0c-0.016,0 -0.024,-0.01 -0.024,-0.026l0,-0.151c0,-0.017 0.008,-0.023 0.024,-0.023l1.102,0c0.017,0 0.024,0.006 0.024,0.023l0,0.151c0,0.016 -0.007,0.026 -0.024,0.026l-0.415,0c-0.012,0 -0.017,0.007 -0.017,0.019l0,1.478c0,0.017 -0.007,0.024 -0.023,0.024l-0.194,0Z" style="fill:#fefefe;fill-rule:nonzero;"/><path d="M53.533,12.827l-0.112,0.388c-0.005,0.012 -0.015,0.019 -0.027,0.019l-0.188,0c-0.017,0 -0.024,-0.012 -0.017,-0.029l0.52,-1.681c0,-0.007 0.005,-0.011 0.017,-0.011l0.272,0c0.007,0 0.014,0.004 0.016,0.013l0.516,1.677c0.007,0.022 0,0.031 -0.02,0.031l-0.207,0c-0.012,0 -0.021,-0.007 -0.024,-0.019l-0.112,-0.388l-0.634,0Zm0.577,-0.201l-0.26,-0.873l-0.26,0.873l0.52,0Z" style="fill:#fefefe;fill-rule:nonzero;"/><path d="M56.736,11.513c0.015,0 0.022,0.006 0.022,0.023l0,1.674c0,0.017 -0.007,0.024 -0.022,0.024l-0.193,0c-0.017,0 -0.023,-0.007 -0.023,-0.024l0,-1.674c0,-0.017 0.006,-0.023 0.023,-0.023l0.193,0Z" style="fill:#fefefe;fill-rule:nonzero;"/><path d="M58.631,12.838l0,-1.302c0,-0.017 0.008,-0.023 0.022,-0.023l0.188,0c0.017,0 0.024,0.006 0.024,0.023l0,1.674c0,0.017 -0.007,0.024 -0.024,0.024l-0.202,0c-0.022,0 -0.027,-0.002 -0.034,-0.019l-0.682,-1.307l0,1.302c0,0.017 -0.007,0.024 -0.024,0.024l-0.186,0c-0.016,0 -0.024,-0.007 -0.024,-0.024l0,-1.674c0,-0.017 0.008,-0.023 0.024,-0.023l0.201,0c0.021,0 0.026,0.001 0.033,0.018l0.684,1.307Z" style="fill:#fefefe;fill-rule:nonzero;"/><path d="M60.036,12.273l0.534,0c0.017,0 0.026,0.007 0.026,0.024l0,0.152c0,0.017 -0.009,0.024 -0.026,0.024l-0.534,0l0,0.737c0,0.017 -0.007,0.024 -0.021,0.024l-0.193,0c-0.017,0 -0.024,-0.007 -0.024,-0.024l0,-1.674c0,-0.017 0.007,-0.023 0.024,-0.023l0.901,0c0.017,0 0.026,0.006 0.026,0.023l0,0.151c0,0.016 -0.009,0.026 -0.026,0.026l-0.668,0c-0.012,0 -0.019,0.007 -0.019,0.019l0,0.541Z" style="fill:#fefefe;fill-rule:nonzero;"/><path d="M62.139,13.251c-0.523,0 -0.683,-0.351 -0.683,-0.878c0,-0.534 0.156,-0.877 0.683,-0.877c0.519,0 0.679,0.343 0.679,0.877c0,0.527 -0.16,0.878 -0.679,0.878Zm0,-1.555c-0.284,0 -0.432,0.222 -0.432,0.677c0,0.456 0.148,0.678 0.432,0.678c0.279,0 0.429,-0.222 0.429,-0.678c0,-0.455 -0.15,-0.677 -0.429,-0.677Z" style="fill:#fefefe;fill-rule:nonzero;"/><path d="M63.917,12.509l0,0.701c0,0.017 -0.007,0.024 -0.021,0.024l-0.193,0c-0.017,0 -0.024,-0.007 -0.024,-0.024l0,-1.674c0,-0.017 0.007,-0.023 0.024,-0.023l0.455,0c0.374,0 0.575,0.157 0.575,0.497c0,0.279 -0.146,0.428 -0.377,0.478l0.415,0.708c0.012,0.021 0.003,0.038 -0.017,0.038l-0.224,0c-0.012,0 -0.019,-0.005 -0.021,-0.012l-0.399,-0.713l-0.193,0Zm0,-0.186l0.215,0c0.229,0 0.348,-0.086 0.348,-0.307c0,-0.22 -0.114,-0.303 -0.343,-0.303l-0.201,0c-0.012,0 -0.019,0.007 -0.019,0.019l0,0.591Z" style="fill:#fefefe;fill-rule:nonzero;"/><path d="M66.268,13.234c-0.012,0 -0.019,-0.005 -0.021,-0.014l-0.398,-1.305l0,1.295c0,0.017 -0.008,0.024 -0.024,0.024l-0.177,0c-0.016,0 -0.024,-0.007 -0.024,-0.024l0,-1.674c0,-0.017 0.008,-0.023 0.024,-0.023l0.258,0c0.012,0 0.021,0.004 0.024,0.013l0.446,1.422l0.448,-1.422c0.004,-0.009 0.014,-0.013 0.026,-0.013l0.236,0c0.015,0 0.022,0.006 0.022,0.023l0,1.674c0,0.017 -0.007,0.024 -0.022,0.024l-0.179,0c-0.016,0 -0.023,-0.007 -0.023,-0.024l0,-1.295l-0.396,1.305c-0.003,0.009 -0.01,0.014 -0.022,0.014l-0.198,0Z" style="fill:#fefefe;fill-rule:nonzero;"/><path d="M68.255,12.827l-0.112,0.388c-0.005,0.012 -0.015,0.019 -0.027,0.019l-0.188,0c-0.016,0 -0.024,-0.012 -0.016,-0.029l0.519,-1.681c0,-0.007 0.005,-0.011 0.017,-0.011l0.272,0c0.007,0 0.014,0.004 0.016,0.013l0.516,1.677c0.007,0.022 0,0.031 -0.02,0.031l-0.207,0c-0.012,0 -0.021,-0.007 -0.024,-0.019l-0.112,-0.388l-0.634,0Zm0.577,-0.201l-0.26,-0.873l-0.26,0.873l0.52,0Z" style="fill:#fefefe;fill-rule:nonzero;"/><path d="M70.255,13.234c-0.014,0 -0.021,-0.007 -0.021,-0.024l0,-1.478c0,-0.012 -0.007,-0.019 -0.019,-0.019l-0.413,0c-0.017,0 -0.024,-0.01 -0.024,-0.026l0,-0.151c0,-0.017 0.007,-0.023 0.024,-0.023l1.102,0c0.017,0 0.024,0.006 0.024,0.023l0,0.151c0,0.016 -0.007,0.026 -0.024,0.026l-0.415,0c-0.012,0 -0.016,0.007 -0.016,0.019l0,1.478c0,0.017 -0.008,0.024 -0.024,0.024l-0.194,0Z" style="fill:#fefefe;fill-rule:nonzero;"/><path d="M71.946,11.513c0.014,0 0.021,0.006 0.021,0.023l0,1.674c0,0.017 -0.007,0.024 -0.021,0.024l-0.193,0c-0.017,0 -0.024,-0.007 -0.024,-0.024l0,-1.674c0,-0.017 0.007,-0.023 0.024,-0.023l0.193,0Z" style="fill:#fefefe;fill-rule:nonzero;"/><path d="M73.359,12.349l0.672,0.85c0.012,0.016 0,0.035 -0.019,0.035l-0.243,0c-0.007,0 -0.014,-0.002 -0.019,-0.009l-0.613,-0.816l0,0.801c0,0.017 -0.007,0.024 -0.022,0.024l-0.193,0c-0.017,0 -0.023,-0.007 -0.023,-0.024l0,-1.674c0,-0.017 0.006,-0.023 0.023,-0.023l0.193,0c0.015,0 0.022,0.006 0.022,0.023l0,0.775l0.587,-0.789c0.004,-0.008 0.011,-0.009 0.021,-0.009l0.222,0c0.019,0 0.028,0.021 0.017,0.037l-0.625,0.799Z" style="fill:#fefefe;fill-rule:nonzero;"/><path d="M75.429,12.504l0,0.704c0,0.017 -0.008,0.026 -0.024,0.026l-0.191,0c-0.017,0 -0.024,-0.009 -0.024,-0.026l0,-0.704l-0.494,-0.954c-0.012,-0.021 -0.003,-0.037 0.019,-0.037l0.217,0c0.012,0 0.019,0.004 0.024,0.013l0.367,0.757l0.37,-0.757c0.002,-0.009 0.009,-0.013 0.021,-0.013l0.203,0c0.02,0 0.029,0.016 0.021,0.033l-0.509,0.958Z" style="fill:#fefefe;fill-rule:nonzero;"/><path d="M42.702,16.14l-0.112,0.389c-0.005,0.012 -0.015,0.019 -0.026,0.019l-0.189,0c-0.017,0 -0.024,-0.012 -0.017,-0.029l0.52,-1.681c0,-0.007 0.005,-0.012 0.017,-0.012l0.272,0c0.007,0 0.015,0.005 0.016,0.014l0.516,1.677c0.007,0.021 0,0.031 -0.019,0.031l-0.208,0c-0.012,0 -0.021,-0.007 -0.024,-0.019l-0.112,-0.389l-0.634,0Zm0.577,-0.201l-0.26,-0.872l-0.26,0.872l0.52,0Z" style="fill:#fefefe;fill-rule:nonzero;"/><path d="M45.905,14.826c0.015,0 0.022,0.007 0.022,0.024l0,1.674c0,0.017 -0.007,0.024 -0.022,0.024l-0.193,0c-0.017,0 -0.023,-0.007 -0.023,-0.024l0,-1.674c0,-0.017 0.006,-0.024 0.023,-0.024l0.193,0Z" style="fill:#fefefe;fill-rule:nonzero;"/><path d="M47.801,16.152l0,-1.302c0,-0.017 0.007,-0.024 0.021,-0.024l0.188,0c0.017,0 0.024,0.007 0.024,0.024l0,1.674c0,0.017 -0.007,0.024 -0.024,0.024l-0.202,0c-0.022,0 -0.026,-0.003 -0.034,-0.019l-0.682,-1.307l0,1.302c0,0.017 -0.007,0.024 -0.024,0.024l-0.185,0c-0.017,0 -0.024,-0.007 -0.024,-0.024l0,-1.674c0,-0.017 0.007,-0.024 0.024,-0.024l0.2,0c0.021,0 0.026,0.002 0.033,0.019l0.685,1.307Z" style="fill:#fefefe;fill-rule:nonzero;"/><path d="M49.205,15.587l0.534,0c0.017,0 0.026,0.007 0.026,0.023l0,0.153c0,0.017 -0.009,0.024 -0.026,0.024l-0.534,0l0,0.737c0,0.017 -0.007,0.024 -0.021,0.024l-0.193,0c-0.017,0 -0.024,-0.007 -0.024,-0.024l0,-1.674c0,-0.017 0.007,-0.024 0.024,-0.024l0.901,0c0.017,0 0.026,0.007 0.026,0.024l0,0.15c0,0.016 -0.009,0.026 -0.026,0.026l-0.668,0c-0.012,0 -0.019,0.007 -0.019,0.019l0,0.542Z" style="fill:#fefefe;fill-rule:nonzero;"/><path d="M51.308,16.565c-0.523,0 -0.683,-0.351 -0.683,-0.878c0,-0.535 0.156,-0.878 0.683,-0.878c0.519,0 0.679,0.343 0.679,0.878c0,0.527 -0.16,0.878 -0.679,0.878Zm0,-1.556c-0.284,0 -0.432,0.222 -0.432,0.678c0,0.455 0.148,0.677 0.432,0.677c0.279,0 0.429,-0.222 0.429,-0.677c0,-0.456 -0.15,-0.678 -0.429,-0.678Z" style="fill:#fefefe;fill-rule:nonzero;"/><path d="M53.086,15.823l0,0.701c0,0.017 -0.007,0.024 -0.021,0.024l-0.193,0c-0.017,0 -0.024,-0.007 -0.024,-0.024l0,-1.674c0,-0.017 0.007,-0.024 0.024,-0.024l0.455,0c0.375,0 0.575,0.157 0.575,0.498c0,0.279 -0.146,0.427 -0.377,0.477l0.415,0.708c0.012,0.022 0.003,0.039 -0.016,0.039l-0.225,0c-0.012,0 -0.019,-0.005 -0.021,-0.012l-0.399,-0.713l-0.193,0Zm0,-0.186l0.215,0c0.229,0 0.348,-0.086 0.348,-0.308c0,-0.22 -0.114,-0.303 -0.343,-0.303l-0.201,0c-0.011,0 -0.019,0.007 -0.019,0.019l0,0.592Z" style="fill:#fefefe;fill-rule:nonzero;"/><path d="M55.437,16.548c-0.012,0 -0.019,-0.005 -0.021,-0.015l-0.398,-1.304l0,1.295c0,0.017 -0.008,0.024 -0.024,0.024l-0.176,0c-0.017,0 -0.024,-0.007 -0.024,-0.024l0,-1.674c0,-0.017 0.007,-0.024 0.024,-0.024l0.257,0c0.012,0 0.021,0.005 0.024,0.014l0.446,1.421l0.448,-1.421c0.005,-0.009 0.014,-0.014 0.026,-0.014l0.236,0c0.015,0 0.022,0.007 0.022,0.024l0,1.674c0,0.017 -0.007,0.024 -0.022,0.024l-0.179,0c-0.016,0 -0.023,-0.007 -0.023,-0.024l0,-1.295l-0.396,1.304c-0.003,0.01 -0.01,0.015 -0.022,0.015l-0.198,0Z" style="fill:#fefefe;fill-rule:nonzero;"/><path d="M57.424,16.14l-0.112,0.389c-0.005,0.012 -0.015,0.019 -0.027,0.019l-0.188,0c-0.016,0 -0.024,-0.012 -0.016,-0.029l0.519,-1.681c0,-0.007 0.005,-0.012 0.017,-0.012l0.272,0c0.007,0 0.014,0.005 0.017,0.014l0.515,1.677c0.007,0.021 0,0.031 -0.019,0.031l-0.208,0c-0.012,0 -0.021,-0.007 -0.023,-0.019l-0.113,-0.389l-0.634,0Zm0.577,-0.201l-0.26,-0.872l-0.26,0.872l0.52,0Z" style="fill:#fefefe;fill-rule:nonzero;"/><path d="M59.88,16.565c-0.486,0 -0.703,-0.358 -0.703,-0.88c0,-0.516 0.217,-0.876 0.703,-0.876c0.162,0 0.282,0.022 0.416,0.095c0.011,0.01 0.011,0.024 0.004,0.041l-0.072,0.131c-0.007,0.017 -0.021,0.017 -0.033,0.01c-0.103,-0.05 -0.167,-0.072 -0.301,-0.072c-0.267,0 -0.465,0.215 -0.465,0.671c0,0.462 0.194,0.674 0.465,0.674c0.12,0 0.196,-0.017 0.303,-0.074c0.015,-0.007 0.024,-0.004 0.031,0.007l0.074,0.137c0.007,0.014 0.005,0.026 -0.006,0.037c-0.139,0.077 -0.251,0.099 -0.416,0.099Zm-0.391,-2.085c-0.017,-0.012 -0.021,-0.021 -0.01,-0.034l0.077,-0.102c0.009,-0.012 0.022,-0.014 0.033,-0.005l0.238,0.198c0.011,0.01 0.02,0.01 0.03,0l0.238,-0.198c0.012,-0.009 0.024,-0.007 0.033,0.005l0.077,0.102c0.011,0.013 0.007,0.022 -0.01,0.034l-0.336,0.227c-0.012,0.006 -0.021,0.006 -0.034,0l-0.336,-0.227Z" style="fill:#fefefe;fill-rule:nonzero;"/><path d="M62.062,16.152l0,-1.302c0,-0.017 0.008,-0.024 0.022,-0.024l0.188,0c0.017,0 0.024,0.007 0.024,0.024l0,1.674c0,0.017 -0.007,0.024 -0.024,0.024l-0.202,0c-0.022,0 -0.027,-0.003 -0.034,-0.019l-0.682,-1.307l0,1.302c0,0.017 -0.007,0.024 -0.024,0.024l-0.186,0c-0.017,0 -0.024,-0.007 -0.024,-0.024l0,-1.674c0,-0.017 0.007,-0.024 0.024,-0.024l0.201,0c0.021,0 0.025,0.002 0.033,0.019l0.684,1.307Z" style="fill:#fefefe;fill-rule:nonzero;"/><path d="M63.826,15.818l0,0.703c0,0.017 -0.007,0.027 -0.023,0.027l-0.191,0c-0.017,0 -0.024,-0.01 -0.024,-0.027l0,-0.703l-0.494,-0.954c-0.012,-0.022 -0.002,-0.038 0.02,-0.038l0.216,0c0.012,0 0.019,0.005 0.024,0.014l0.367,0.756l0.37,-0.756c0.002,-0.009 0.01,-0.014 0.021,-0.014l0.203,0c0.02,0 0.029,0.016 0.022,0.033l-0.511,0.959Zm-0.128,-1.123c-0.012,0.007 -0.024,-0.003 -0.031,-0.01l-0.032,-0.062c-0.002,-0.009 0,-0.024 0.013,-0.031l0.422,-0.248c0.017,-0.007 0.026,-0.003 0.031,0.01l0.064,0.121c0.007,0.017 0.003,0.026 -0.012,0.034l-0.455,0.186Z" style="fill:#fefefe;fill-rule:nonzero;"/><path d="M65.693,16.565c-0.486,0 -0.703,-0.358 -0.703,-0.88c0,-0.516 0.217,-0.876 0.703,-0.876c0.163,0 0.282,0.022 0.415,0.095c0.013,0.01 0.013,0.024 0.005,0.041l-0.072,0.131c-0.006,0.017 -0.021,0.017 -0.033,0.01c-0.102,-0.05 -0.167,-0.072 -0.3,-0.072c-0.267,0 -0.465,0.215 -0.465,0.671c0,0.462 0.193,0.674 0.465,0.674c0.119,0 0.195,-0.017 0.303,-0.074c0.014,-0.007 0.024,-0.004 0.03,0.007l0.075,0.137c0.007,0.014 0.005,0.026 -0.008,0.037c-0.138,0.077 -0.25,0.099 -0.415,0.099Z" style="fill:#fefefe;fill-rule:nonzero;"/><path d="M67.191,15.787c-0.012,0 -0.019,0.007 -0.019,0.019l0,0.718c0,0.017 -0.007,0.024 -0.022,0.024l-0.193,0c-0.017,0 -0.024,-0.007 -0.024,-0.024l0,-1.674c0,-0.017 0.007,-0.024 0.024,-0.024l0.193,0c0.015,0 0.022,0.007 0.022,0.024l0,0.717c0,0.012 0.007,0.02 0.019,0.02l0.658,0c0.012,0 0.019,-0.008 0.019,-0.02l0,-0.717c0,-0.017 0.008,-0.024 0.024,-0.024l0.191,0c0.016,0 0.024,0.007 0.024,0.024l0,1.674c0,0.017 -0.008,0.024 -0.024,0.024l-0.191,0c-0.016,0 -0.024,-0.007 -0.024,-0.024l0,-0.718c0,-0.012 -0.007,-0.019 -0.019,-0.019l-0.658,0Z" style="fill:#fefefe;fill-rule:nonzero;"/><path d="M70.571,16.548c-0.014,0 -0.022,-0.007 -0.022,-0.024l0,-1.479c0,-0.012 -0.007,-0.019 -0.018,-0.019l-0.413,0c-0.017,0 -0.024,-0.01 -0.024,-0.026l0,-0.15c0,-0.017 0.007,-0.024 0.024,-0.024l1.102,0c0.016,0 0.024,0.007 0.024,0.024l0,0.15c0,0.016 -0.008,0.026 -0.024,0.026l-0.415,0c-0.012,0 -0.017,0.007 -0.017,0.019l0,1.479c0,0.017 -0.007,0.024 -0.024,0.024l-0.193,0Z" style="fill:#fefefe;fill-rule:nonzero;"/><path d="M72.28,15.587l0.559,0c0.016,0 0.026,0.007 0.026,0.023l0,0.153c0,0.017 -0.01,0.024 -0.026,0.024l-0.559,0l0,0.541c0,0.012 0.005,0.019 0.017,0.019l0.694,0c0.017,0 0.027,0.007 0.027,0.024l0,0.153c0,0.017 -0.01,0.024 -0.027,0.024l-0.925,0c-0.017,0 -0.024,-0.007 -0.024,-0.024l0,-1.674c0,-0.017 0.007,-0.024 0.024,-0.024l0.925,0c0.017,0 0.027,0.007 0.027,0.024l0,0.15c0,0.016 -0.01,0.026 -0.027,0.026l-0.694,0c-0.012,0 -0.017,0.007 -0.017,0.019l0,0.542Z" style="fill:#fefefe;fill-rule:nonzero;"/><path d="M74.509,16.565c-0.486,0 -0.703,-0.358 -0.703,-0.88c0,-0.516 0.217,-0.876 0.703,-0.876c0.163,0 0.282,0.022 0.415,0.095c0.013,0.01 0.013,0.024 0.005,0.041l-0.072,0.131c-0.007,0.017 -0.021,0.017 -0.033,0.01c-0.102,-0.05 -0.167,-0.072 -0.3,-0.072c-0.268,0 -0.465,0.215 -0.465,0.671c0,0.462 0.193,0.674 0.465,0.674c0.119,0 0.195,-0.017 0.303,-0.074c0.014,-0.007 0.023,-0.004 0.03,0.007l0.074,0.137c0.007,0.014 0.006,0.026 -0.007,0.037c-0.138,0.077 -0.25,0.099 -0.415,0.099Z" style="fill:#fefefe;fill-rule:nonzero;"/><path d="M76.007,15.787c-0.012,0 -0.019,0.007 -0.019,0.019l0,0.718c0,0.017 -0.008,0.024 -0.022,0.024l-0.193,0c-0.017,0 -0.024,-0.007 -0.024,-0.024l0,-1.674c0,-0.017 0.007,-0.024 0.024,-0.024l0.193,0c0.014,0 0.022,0.007 0.022,0.024l0,0.717c0,0.012 0.007,0.02 0.019,0.02l0.658,0c0.012,0 0.019,-0.008 0.019,-0.02l0,-0.717c0,-0.017 0.008,-0.024 0.024,-0.024l0.191,0c0.016,0 0.023,0.007 0.023,0.024l0,1.674c0,0.017 -0.007,0.024 -0.023,0.024l-0.191,0c-0.016,0 -0.024,-0.007 -0.024,-0.024l0,-0.718c0,-0.012 -0.007,-0.019 -0.019,-0.019l-0.658,0Z" style="fill:#fefefe;fill-rule:nonzero;"/><path d="M78.797,16.152l0,-1.302c0,-0.017 0.007,-0.024 0.021,-0.024l0.189,0c0.016,0 0.024,0.007 0.024,0.024l0,1.674c0,0.017 -0.008,0.024 -0.024,0.024l-0.203,0c-0.022,0 -0.026,-0.003 -0.033,-0.019l-0.682,-1.307l0,1.302c0,0.017 -0.008,0.024 -0.024,0.024l-0.186,0c-0.017,0 -0.024,-0.007 -0.024,-0.024l0,-1.674c0,-0.017 0.007,-0.024 0.024,-0.024l0.2,0c0.021,0 0.026,0.002 0.034,0.019l0.684,1.307Z" style="fill:#fefefe;fill-rule:nonzero;"/><path d="M80.571,16.565c-0.523,0 -0.682,-0.351 -0.682,-0.878c0,-0.535 0.155,-0.878 0.682,-0.878c0.52,0 0.68,0.343 0.68,0.878c0,0.527 -0.16,0.878 -0.68,0.878Zm0,-1.556c-0.284,0 -0.432,0.222 -0.432,0.678c0,0.455 0.148,0.677 0.432,0.677c0.279,0 0.429,-0.222 0.429,-0.677c0,-0.456 -0.15,-0.678 -0.429,-0.678Z" style="fill:#fefefe;fill-rule:nonzero;"/><path d="M82.349,16.328c0,0.012 0.005,0.019 0.017,0.019l0.661,0c0.016,0 0.024,0.01 0.024,0.027l0,0.15c0,0.017 -0.008,0.024 -0.024,0.024l-0.892,0c-0.017,0 -0.024,-0.007 -0.024,-0.024l0,-1.674c0,-0.017 0.007,-0.024 0.024,-0.024l0.193,0c0.014,0 0.021,0.007 0.021,0.024l0,1.478Z" style="fill:#fefefe;fill-rule:nonzero;"/><path d="M84.354,16.565c-0.522,0 -0.682,-0.351 -0.682,-0.878c0,-0.535 0.155,-0.878 0.682,-0.878c0.52,0 0.68,0.343 0.68,0.878c0,0.527 -0.16,0.878 -0.68,0.878Zm0,-1.556c-0.284,0 -0.431,0.222 -0.431,0.678c0,0.455 0.147,0.677 0.431,0.677c0.279,0 0.43,-0.222 0.43,-0.677c0,-0.456 -0.151,-0.678 -0.43,-0.678Zm-0.121,-0.314c-0.012,0.007 -0.024,-0.003 -0.031,-0.01l-0.032,-0.062c-0.001,-0.009 0,-0.024 0.013,-0.031l0.422,-0.248c0.017,-0.007 0.026,-0.003 0.031,0.01l0.064,0.121c0.007,0.017 0.002,0.026 -0.012,0.034l-0.455,0.186Z" style="fill:#fefefe;fill-rule:nonzero;"/><path d="M86.775,15.859l-0.287,0c-0.016,0 -0.023,-0.008 -0.023,-0.024l0,-0.148c0,-0.017 0.007,-0.024 0.023,-0.024l0.485,0c0.017,0 0.024,0.007 0.024,0.024l0,0.744c0,0.016 -0.005,0.026 -0.015,0.031c-0.133,0.069 -0.272,0.103 -0.453,0.103c-0.486,0 -0.706,-0.364 -0.706,-0.88c0,-0.516 0.22,-0.876 0.706,-0.876c0.16,0 0.282,0.022 0.415,0.095c0.012,0.01 0.012,0.024 0.005,0.041l-0.069,0.131c-0.01,0.017 -0.022,0.019 -0.036,0.01c-0.103,-0.05 -0.167,-0.072 -0.301,-0.072c-0.267,0 -0.467,0.215 -0.467,0.671c0,0.462 0.196,0.681 0.46,0.681c0.117,0 0.174,-0.021 0.239,-0.047l0,-0.46Z" style="fill:#fefefe;fill-rule:nonzero;"/><path d="M88.074,14.826c0.014,0 0.021,0.007 0.021,0.024l0,1.674c0,0.017 -0.007,0.024 -0.021,0.024l-0.193,0c-0.017,0 -0.024,-0.007 -0.024,-0.024l0,-1.674c0,-0.017 0.007,-0.024 0.024,-0.024l0.193,0Z" style="fill:#fefefe;fill-rule:nonzero;"/><path d="M89.034,14.695c-0.012,0.007 -0.024,-0.003 -0.031,-0.01l-0.031,-0.062c-0.002,-0.009 0,-0.024 0.012,-0.031l0.422,-0.248c0.016,-0.007 0.026,-0.003 0.031,0.01l0.064,0.121c0.007,0.017 0.003,0.026 -0.012,0.034l-0.455,0.186Zm0.209,0.131c0.015,0 0.022,0.007 0.022,0.024l0,1.674c0,0.017 -0.007,0.024 -0.022,0.024l-0.193,0c-0.016,0 -0.023,-0.007 -0.023,-0.024l0,-1.674c0,-0.017 0.007,-0.024 0.023,-0.024l0.193,0Z" style="fill:#fefefe;fill-rule:nonzero;"/><path d="M5.612,9.714c0.356,0 0.646,-0.289 0.646,-0.646c0,-0.358 -0.29,-0.645 -0.646,-0.645c-0.357,0 -0.646,0.287 -0.646,0.645c0,0.357 0.289,0.646 0.646,0.646Z" style="fill:#fefefe;fill-rule:nonzero;"/><path d="M5.612,13.262c0.356,0 0.646,-0.289 0.646,-0.645c0,-0.357 -0.29,-0.647 -0.646,-0.647c-0.357,0 -0.646,0.29 -0.646,0.647c0,0.356 0.289,0.645 0.646,0.645Z" style="fill:#fefefe;fill-rule:nonzero;"/><path d="M9.161,9.714c0.356,0 0.645,-0.289 0.645,-0.646c0,-0.358 -0.289,-0.645 -0.645,-0.645c-0.357,0 -0.647,0.287 -0.647,0.645c0,0.357 0.29,0.646 0.647,0.646Z" style="fill:#fefefe;fill-rule:nonzero;"/><path d="M9.161,13.262c0.356,0 0.645,-0.289 0.645,-0.645c0,-0.357 -0.289,-0.647 -0.645,-0.647c-0.357,0 -0.647,0.29 -0.647,0.647c0,0.356 0.29,0.645 0.647,0.645Z" style="fill:#fefefe;fill-rule:nonzero;"/><path d="M12.708,9.714c0.358,0 0.647,-0.289 0.647,-0.646c0,-0.358 -0.289,-0.645 -0.647,-0.645c-0.357,0 -0.645,0.287 -0.645,0.645c0,0.357 0.288,0.646 0.645,0.646Z" style="fill:#fefefe;fill-rule:nonzero;"/><path d="M5.612,6.165c0.356,0 0.646,-0.289 0.646,-0.646c0,-0.357 -0.29,-0.645 -0.646,-0.645c-0.357,0 -0.646,0.288 -0.646,0.645c0,0.357 0.289,0.646 0.646,0.646Z" style="fill:#fefefe;fill-rule:nonzero;"/><path d="M9.161,6.165c0.356,0 0.645,-0.289 0.645,-0.646c0,-0.357 -0.289,-0.645 -0.645,-0.645c-0.357,0 -0.647,0.288 -0.647,0.645c0,0.357 0.29,0.646 0.647,0.646Z" style="fill:#fefefe;fill-rule:nonzero;"/><path d="M12.708,6.165c0.358,0 0.647,-0.289 0.647,-0.646c0,-0.357 -0.289,-0.645 -0.647,-0.645c-0.357,0 -0.645,0.288 -0.645,0.645c0,0.357 0.288,0.646 0.645,0.646Z" style="fill:#fefefe;fill-rule:nonzero;"/><path d="M12.708,13.262c0.358,0 0.647,-0.289 0.647,-0.645c0,-0.357 -0.289,-0.647 -0.647,-0.647c-0.357,0 -0.645,0.29 -0.645,0.647c0,0.356 0.288,0.645 0.645,0.645Z" style="fill:#fefefe;fill-rule:nonzero;"/><path d="M16.257,9.714c0.357,0 0.647,-0.289 0.647,-0.646c0,-0.358 -0.29,-0.645 -0.647,-0.645c-0.356,0 -0.645,0.287 -0.645,0.645c0,0.357 0.289,0.646 0.645,0.646Z" style="fill:#fefefe;fill-rule:nonzero;"/><path d="M16.257,13.262c0.357,0 0.647,-0.289 0.647,-0.645c0,-0.357 -0.29,-0.647 -0.647,-0.647c-0.356,0 -0.645,0.29 -0.645,0.647c0,0.356 0.289,0.645 0.645,0.645Z" style="fill:#fefefe;fill-rule:nonzero;"/><path d="M16.257,6.165c0.357,0 0.647,-0.289 0.647,-0.647c0,-0.355 -0.29,-0.645 -0.647,-0.645c-0.356,0 -0.645,0.29 -0.645,0.645c0,0.358 0.289,0.647 0.645,0.647Z" style="fill:#fefefe;fill-rule:nonzero;"/><path d="M29.341,13.231c0.034,0 0.048,-0.015 0.048,-0.048l0,-2.961c0,-0.024 0.01,-0.038 0.034,-0.038l0.831,0c0.033,0 0.047,-0.019 0.047,-0.052l0,-0.301c0,-0.034 -0.014,-0.048 -0.047,-0.048l-2.206,0c-0.034,0 -0.048,0.014 -0.048,0.048l0,0.301c0,0.033 0.014,0.052 0.048,0.052l0.826,0c0.024,0 0.038,0.014 0.038,0.038l0,2.961c0,0.033 0.014,0.048 0.043,0.048l0.386,0Zm-3.37,-3.448c-0.034,0 -0.047,0.014 -0.047,0.048l0,3.352c0,0.033 0.013,0.048 0.047,0.048l0.387,0c0.028,0 0.043,-0.015 0.043,-0.048l0,-3.352c0,-0.034 -0.015,-0.048 -0.043,-0.048l-0.387,0Zm-2.34,0c-0.033,0 -0.047,0.014 -0.047,0.048l0,3.352c0,0.033 0.014,0.048 0.047,0.048l0.387,0c0.029,0 0.043,-0.015 0.043,-0.048l0,-3.352c0,-0.034 -0.014,-0.048 -0.043,-0.048l-0.387,0Zm-3.031,0.439c0,-0.024 0.014,-0.038 0.038,-0.038l1.337,0c0.033,0 0.052,-0.019 0.052,-0.052l0,-0.301c0,-0.034 -0.019,-0.048 -0.052,-0.048l-1.805,0c-0.034,0 -0.048,0.014 -0.048,0.048l0,3.352c0,0.033 0.014,0.048 0.048,0.048l0.386,0c0.029,0 0.044,-0.015 0.044,-0.048l0,-1.476l1.069,0c0.034,0 0.053,-0.014 0.053,-0.047l0,-0.306c0,-0.033 -0.019,-0.048 -0.053,-0.048l-1.069,0l0,-1.084Z" style="fill:#fefefe;fill-rule:nonzero;"/><path d="M30.492,4.986c0,-0.043 -0.018,-0.062 -0.052,-0.062l-0.644,0c-0.039,0 -0.058,0.019 -0.058,0.062l0,2.302c0,0.339 -0.186,0.506 -0.563,0.506c-0.372,0 -0.559,-0.167 -0.559,-0.506l0,-2.302c0,-0.043 -0.019,-0.062 -0.053,-0.062l-0.639,0c-0.043,0 -0.063,0.019 -0.063,0.062l0,2.321c0,0.673 0.378,1.098 1.314,1.098c0.94,0 1.317,-0.425 1.317,-1.098l0,-2.321Zm-5.195,3.386c0.044,0 0.063,-0.019 0.063,-0.063l0,-2.735c0,-0.024 0.009,-0.039 0.033,-0.039l0.812,0c0.038,0 0.057,-0.019 0.057,-0.061l0,-0.488c0,-0.043 -0.019,-0.062 -0.057,-0.062l-2.435,0c-0.043,0 -0.062,0.019 -0.062,0.062l0,0.488c0,0.042 0.019,0.061 0.062,0.061l0.797,0c0.024,0 0.038,0.015 0.038,0.039l0,2.735c0,0.044 0.02,0.063 0.053,0.063l0.639,0Zm-5.285,-0.167c0.325,0.167 0.635,0.2 1.032,0.2c0.735,0 1.208,-0.367 1.208,-1.036c0,-0.487 -0.23,-0.783 -0.827,-1.036c-0.51,-0.206 -0.582,-0.296 -0.582,-0.488c0,-0.195 0.134,-0.329 0.439,-0.329c0.225,0 0.416,0.038 0.602,0.115c0.043,0.019 0.072,0 0.086,-0.033l0.224,-0.439c0.015,-0.034 0.015,-0.068 -0.028,-0.082c-0.349,-0.153 -0.549,-0.186 -1.013,-0.186c-0.711,0 -1.131,0.415 -1.131,0.974c0,0.511 0.258,0.826 0.854,1.079c0.463,0.205 0.559,0.305 0.559,0.501c0,0.21 -0.172,0.334 -0.458,0.334c-0.33,0 -0.497,-0.066 -0.697,-0.157c-0.039,-0.014 -0.067,0 -0.081,0.033l-0.215,0.492c-0.01,0.019 0,0.038 0.028,0.058Z" style="fill:#fefefe;fill-rule:nonzero;"/></g></svg>