<?xml version="1.0" encoding="UTF-8" standalone="no"?><!DOCTYPE svg PUBLIC "-//W3C//DTD SVG 1.1//EN" "http://www.w3.org/Graphics/SVG/1.1/DTD/svg11.dtd"><svg width="100%" height="100%" viewBox="0 0 25 25" version="1.1" xmlns="http://www.w3.org/2000/svg" xmlns:xlink="http://www.w3.org/1999/xlink" xml:space="preserve" style="fill-rule:evenodd;clip-rule:evenodd;stroke-linejoin:round;stroke-miterlimit:1.41421;"><path d="M21.564,21.707c0.074,0 0.107,-0.031 0.107,-0.105l0,-6.537c0,-0.053 0.02,-0.085 0.073,-0.085l1.835,0c0.072,0 0.105,-0.041 0.105,-0.116l0,-0.663c0,-0.075 -0.033,-0.106 -0.105,-0.106l-4.872,0c-0.074,0 -0.105,0.031 -0.105,0.106l0,0.663c0,0.075 0.031,0.116 0.105,0.116l1.825,0c0.053,0 0.083,0.032 0.083,0.085l0,6.537c0,0.074 0.033,0.105 0.095,0.105l0.854,0Zm-7.442,-7.612c-0.074,0 -0.106,0.031 -0.106,0.106l0,7.401c0,0.074 0.032,0.105 0.106,0.105l0.854,0c0.064,0 0.094,-0.031 0.094,-0.105l0,-7.401c0,-0.075 -0.03,-0.106 -0.094,-0.106l-0.854,0Zm-5.165,0c-0.075,0 -0.105,0.031 -0.105,0.106l0,7.401c0,0.074 0.03,0.105 0.105,0.105l0.854,0c0.063,0 0.094,-0.031 0.094,-0.105l0,-7.401c0,-0.075 -0.031,-0.106 -0.094,-0.106l-0.854,0Zm-6.695,0.97c0,-0.053 0.033,-0.085 0.085,-0.085l2.95,0c0.075,0 0.117,-0.041 0.117,-0.116l0,-0.663c0,-0.075 -0.042,-0.106 -0.117,-0.106l-3.984,0c-0.074,0 -0.105,0.031 -0.105,0.106l0,7.401c0,0.074 0.031,0.105 0.105,0.105l0.854,0c0.063,0 0.095,-0.031 0.095,-0.105l0,-3.258l2.362,0c0.074,0 0.116,-0.032 0.116,-0.106l0,-0.673c0,-0.075 -0.042,-0.107 -0.116,-0.107l-2.362,0l0,-2.393Z" style="fill:#fefefe;fill-rule:nonzero;"/><path d="M24.105,3.503c0,-0.094 -0.041,-0.136 -0.116,-0.136l-1.422,0c-0.084,0 -0.128,0.042 -0.128,0.136l0,5.082c0,0.749 -0.41,1.118 -1.242,1.118c-0.824,0 -1.234,-0.369 -1.234,-1.118l0,-5.082c0,-0.094 -0.042,-0.136 -0.116,-0.136l-1.414,0c-0.094,0 -0.136,0.042 -0.136,0.136l0,5.124c0,1.487 0.832,2.426 2.9,2.426c2.076,0 2.908,-0.939 2.908,-2.426l0,-5.124Zm-11.469,7.476c0.095,0 0.136,-0.042 0.136,-0.137l0,-6.041c0,-0.053 0.022,-0.085 0.075,-0.085l1.791,0c0.085,0 0.127,-0.042 0.127,-0.136l0,-1.077c0,-0.094 -0.042,-0.136 -0.127,-0.136l-5.376,0c-0.095,0 -0.136,0.042 -0.136,0.136l0,1.077c0,0.094 0.041,0.136 0.136,0.136l1.761,0c0.052,0 0.085,0.032 0.085,0.085l0,6.041c0,0.095 0.041,0.137 0.114,0.137l1.414,0Zm-11.672,-0.37c0.719,0.37 1.403,0.444 2.279,0.444c1.622,0 2.667,-0.812 2.667,-2.288c0,-1.076 -0.507,-1.73 -1.824,-2.289c-1.128,-0.453 -1.286,-0.653 -1.286,-1.075c0,-0.432 0.296,-0.727 0.97,-0.727c0.496,0 0.917,0.084 1.327,0.253c0.095,0.042 0.159,0 0.19,-0.073l0.496,-0.97c0.033,-0.075 0.033,-0.148 -0.064,-0.181c-0.769,-0.336 -1.211,-0.41 -2.235,-0.41c-1.569,0 -2.497,0.917 -2.497,2.151c0,1.127 0.568,1.823 1.887,2.382c1.023,0.453 1.234,0.675 1.234,1.106c0,0.465 -0.38,0.739 -1.012,0.739c-0.729,0 -1.098,-0.148 -1.541,-0.348c-0.084,-0.031 -0.147,0 -0.178,0.074l-0.474,1.085c-0.022,0.043 0,0.085 0.061,0.127Z" style="fill:#fefefe;fill-rule:nonzero;"/></svg>